<svg width="230" height="55" viewBox="0 0 230 55" fill="none" xmlns="http://www.w3.org/2000/svg">
<g clip-path="url(#clip0_1028:6975)">
<path d="M62.1527 33.1163C60.4133 26.8888 55.6011 20.6031 50.1511 17.1692C44.2953 13.3862 36.7582 11.7566 29.8008 12.8042C29.6848 12.8042 30.2646 13.6772 30.6124 14.2592C28.0034 14.7248 25.4524 15.4814 23.1332 16.4126C20.988 17.2857 18.8428 18.5661 17.1035 20.2539C17.0455 20.1957 17.0455 20.1375 16.9875 20.0793C16.6397 19.4973 15.712 19.9047 16.0599 20.5449C16.1758 20.7195 16.2338 20.8359 16.3498 21.0105C13.9727 23.5132 12.4652 26.7142 12.987 30.3227C13.4509 33.6983 16.0019 36.6666 18.321 39.0528C20.0604 40.7989 22.0896 42.1957 24.2928 43.2433C24.6407 45.164 25.1625 47.0846 26.0322 48.8888C26.3221 49.4708 27.2497 49.0634 26.9598 48.4814C26.2641 46.9682 25.7423 45.3968 25.3944 43.7671C25.6843 43.8835 25.9162 43.9999 26.2061 44.1163C31.2502 46.037 36.7002 47.0846 42.0342 47.5502C46.9044 47.9576 52.1804 47.8412 56.6447 45.5714C61.4569 43.0687 63.6021 38.1798 62.1527 33.1163ZM27.0178 28.4021C29.8007 29.1587 32.7576 29.4497 35.5986 29.6243C37.9177 29.7407 40.4108 29.8571 42.9618 29.7989C42.9618 29.8571 43.0198 29.9153 43.0198 30.0317C43.4836 32.1851 43.8895 34.6296 43.8315 37.074C43.1358 37.1322 42.498 37.1322 41.8602 37.1904C36.1204 37.5978 30.6124 36.8412 25.3364 35.1534C25.6263 32.8253 26.2061 30.5555 27.0178 28.4021ZM24.2928 34.8042C21.5098 33.873 18.7269 32.6507 16.0019 31.2539C16.1758 28.6931 17.3934 26.2486 18.9588 24.2116C20.988 26.074 23.3652 27.2962 26.0322 28.0528C25.2205 30.2645 24.6407 32.5343 24.2928 34.8042ZM33.7433 16.0634C32.4678 17.2857 31.3082 18.6825 30.2646 20.1957C29.2789 19.6137 28.4672 18.9153 27.8875 17.9259C28.8731 17.5185 29.9167 17.111 30.9603 16.82C31.83 16.529 32.7576 16.2962 33.7433 16.0634ZM34.6709 16.5872C34.7289 16.529 34.7289 16.4708 34.7869 16.4126C36.8741 17.8095 38.5555 19.6719 39.831 21.8253C39.0193 21.8835 38.1496 21.8835 37.3959 21.8253C35.4246 21.7671 33.1055 21.4761 31.1922 20.6031C32.2358 19.2063 33.3954 17.8095 34.6709 16.5872ZM36.8741 22.873C38.0337 22.9312 39.1932 22.9312 40.4108 22.873C41.3964 24.7354 42.1501 26.7142 42.6719 28.7513C40.4108 28.8095 38.2076 28.6931 36.1204 28.5767C33.2794 28.4021 30.2646 28.111 27.4236 27.4126C28.2933 25.3174 29.3369 23.3386 30.6124 21.4761C32.5257 22.4073 34.7869 22.7565 36.8741 22.873ZM44.0634 30.2063C44.0054 30.0317 44.0054 29.9153 43.9475 29.7407C48.7017 29.5079 53.3979 28.4021 56.8186 25.0846C58.0362 27.238 58.8479 29.7407 58.9059 32.1269C55.7171 35.7936 49.7453 36.6084 44.7592 36.9576C44.8171 34.6878 44.5272 32.3015 44.0634 30.2063ZM55.4272 23.1058C55.7171 23.455 56.007 23.8042 56.2389 24.2116C52.9341 27.529 48.3538 28.5185 43.7155 28.7513C43.1937 26.7142 42.498 24.6772 41.5124 22.8148C43.8895 22.5237 46.2666 21.8835 48.2379 20.6031C48.7597 20.2539 48.1219 19.4973 47.6001 19.8465C45.7448 21.1269 43.3677 21.6507 40.9906 21.8835C39.773 19.7301 38.1496 17.8095 36.1784 16.2962C39.0773 16.529 41.9762 17.111 44.7592 17.8677C45.049 18.1005 45.3969 18.3333 45.6868 18.5661C46.0347 18.8571 45.7448 18.4497 45.4549 18.0423C45.5709 18.0423 45.6288 18.1005 45.7448 18.1005C48.8756 18.9735 53.34 20.5449 55.4272 23.1058ZM26.9598 18.3333C27.6556 19.4973 28.5832 20.3703 29.6848 21.0105C28.4093 22.9312 27.3077 24.9682 26.438 27.1216C23.887 26.365 21.5678 25.201 19.6545 23.455L19.7125 23.3968C21.6838 21.1851 24.2348 19.5555 26.9598 18.3333ZM22.9593 39.6931C21.3359 39.111 19.8285 38.4126 18.437 37.4814C18.0891 37.2486 17.6833 36.9576 17.3354 36.6666C17.2774 36.6084 17.2195 36.5502 17.1615 36.5502C16.6397 35.7354 16.3498 34.746 16.1758 33.8147C16.0599 33.2909 16.0019 32.7671 16.0019 32.3015C18.6689 33.6401 21.3359 34.8624 24.1769 35.8518C24.0029 37.2486 23.9449 38.6454 24.0029 40.0423C23.655 39.9259 23.3072 39.8095 22.9593 39.6931ZM25.0465 40.3915C24.9885 38.9946 24.9885 37.5978 25.1625 36.201C26.38 36.6084 27.6556 36.9576 28.8731 37.1904C33.4534 38.1798 38.0916 38.3544 42.7299 38.0634C43.0778 38.0634 43.3677 38.0052 43.7155 38.0052C43.5416 39.8677 43.0778 41.6719 42.0342 43.1851C40.8746 43.1851 39.773 43.1269 38.6714 43.0687C34.0911 42.6613 29.4529 41.7301 25.0465 40.3915ZM55.0213 39.6349C51.7745 42.1957 47.4262 43.0105 43.2517 43.0687C44.1794 41.4973 44.5852 39.6931 44.7592 37.8306C49.5714 37.4814 55.3692 36.6666 58.9059 33.4073C58.558 35.8518 56.8766 38.1798 55.0213 39.6349Z" fill="#009EDB"/>
<path d="M72.9369 33.6401C72.8789 33.5819 72.2411 32.8252 72.1252 32.9416C71.0816 34.3385 70.7917 36.0845 69.806 37.4813C69.5741 37.7723 69.3422 38.0633 69.1103 38.3543C69.2262 37.1903 69.2263 36.0263 69.1683 34.8623C69.4002 35.1533 69.864 35.4443 69.864 35.5025C70.0959 34.2803 70.9076 33.2908 71.2555 32.0104C71.6034 30.6136 71.7773 29.2168 72.0092 27.7617C72.2991 26.0739 72.473 24.3861 72.589 22.6983C72.589 22.349 71.3135 20.6612 70.9656 20.8358C69.5161 21.476 68.7044 23.0475 68.2986 24.8517C68.4725 22.4655 68.2986 20.1374 67.9507 17.7512C67.6608 15.7723 67.6608 13.9681 66.1534 12.4549C64.8779 11.1744 64.4141 14.7829 64.2401 15.5977C63.6024 18.3914 64.0662 21.0104 65.0518 23.6295C62.8486 20.4284 60.0077 17.6348 56.8189 15.5977C56.7029 15.1903 56.471 14.7829 56.2971 14.4919C55.7173 13.4443 55.0795 12.4549 54.4418 11.4072C53.978 10.7088 50.3253 4.19031 52.8764 4.65592C53.862 4.83053 54.4998 7.44957 54.7896 8.20619C55.1375 9.19561 55.4274 10.2432 55.7173 11.2326C56.1231 12.6877 56.529 14.2009 57.3407 15.4813C57.4567 15.5977 58.2683 16.4707 57.9785 16.0633C56.7029 14.0263 56.471 11.2908 55.7753 9.021C55.1955 7.15857 54.3258 5.35434 52.9343 3.95751C52.3546 3.3755 51.7748 2.73529 50.8471 2.79349C49.7455 2.90989 50.6152 5.41254 50.7891 5.87815C51.253 7.21677 51.9487 8.43899 52.6445 9.66121C53.4562 10.9998 54.9636 12.6877 55.1955 14.2591C55.1955 14.3755 55.3694 14.6083 55.5434 14.8411C54.7897 14.3755 53.978 13.9681 53.1663 13.6189L53.3402 13.8517C54.2099 14.2591 55.0216 14.6665 55.8333 15.1321C56.2971 15.5977 56.7609 16.0633 56.7609 16.0633C56.8189 15.9469 56.8189 15.8305 56.8189 15.7141C60.2976 17.9258 63.2545 20.9522 65.3997 24.5025C65.4577 24.5607 65.4577 24.6189 65.5156 24.6771C66.1534 25.7247 66.7332 26.8887 67.197 28.0528C68.5885 31.4284 69.1683 35.4443 68.4725 39.111C68.0087 39.693 67.6029 40.3332 67.4289 41.148C67.3709 41.3226 67.5449 41.4972 67.7188 41.73C67.6029 41.9628 67.5449 42.1956 67.4289 42.4284C66.7332 44.058 65.6896 45.4549 64.472 46.6771C62.5587 47.3173 60.7614 48.2485 59.0221 49.2961C58.9641 49.3543 59.196 49.7035 59.4859 50.111C55.2535 52.2644 50.2094 53.4866 46.1509 54.7088L46.3828 54.9998C50.1514 54.0686 54.4998 53.021 58.3843 51.275C58.4423 51.3914 58.5582 51.566 58.6742 51.6242C60.5875 52.73 62.4428 51.857 64.1821 50.8094C66.2114 49.5871 68.0087 48.0739 70.3858 47.5501C70.3858 47.5501 69.5161 46.0369 69.1103 45.9787H69.0523C67.8348 45.9205 66.6752 46.0369 65.5156 46.3279C66.6172 45.1057 67.4869 43.767 68.1247 42.1956C68.4146 42.4284 68.6465 42.6612 68.6465 42.6612C69.1683 41.3226 70.2699 40.275 71.1395 39.111C72.0092 37.9469 72.2991 36.4337 72.9948 35.1533C72.9369 36.5501 71.8933 38.2961 71.3714 39.1692C70.3858 40.7406 69.1683 42.312 67.7768 43.5924C67.6608 43.6506 68.4146 44.5819 68.5305 44.4655C70.5598 43.1268 72.1831 41.2644 73.3427 39.1692C74.5023 37.1903 74.4443 35.3861 72.9369 33.6401ZM66.2114 25.5501C66.3853 25.7247 66.9651 26.1903 66.9071 26.0157C66.2114 23.3967 65.3417 20.894 65.7476 18.2168C65.8055 18.0422 66.0374 16.8781 66.3273 15.7723C66.4433 16.4125 66.5592 16.9945 66.6172 17.6348C67.0231 20.4866 66.6172 23.3967 67.0811 26.2485C67.139 26.4813 67.8927 27.1215 67.8927 27.1797C67.8927 27.0633 67.8927 27.0051 67.9507 26.8887C67.8927 27.9363 67.9507 28.9258 68.0667 29.7988C67.6029 28.3438 66.9651 26.8887 66.2114 25.5501ZM68.4146 30.73C68.7624 31.1956 69.5161 32.0104 69.5741 31.9522C70.2119 30.7882 69.864 28.8094 69.98 27.5289C70.0959 26.5977 70.2699 25.6665 70.6757 24.7935C70.6177 25.2591 70.6177 25.7829 70.5598 26.2485C70.4438 27.7035 70.2699 29.2168 70.0379 30.6718C69.864 31.8358 69.3422 32.9416 69.1103 34.1057C68.9364 32.9416 68.7044 31.8358 68.4146 30.73ZM58.5582 51.2168C59.0221 51.0422 59.4279 50.8094 59.8917 50.5766C60.1237 50.8094 60.3556 51.0422 60.4715 50.984C61.863 50.6348 63.1385 50.0527 64.414 49.4125C62.6167 50.984 60.7034 52.148 58.5582 51.2168Z" fill="#009EDB"/>
<path d="M60.9935 18.4496C60.7616 16.9946 60.0079 15.6559 59.66 14.2009C59.4281 13.2115 59.3122 12.1639 59.3122 11.1162C59.3122 9.83582 59.4861 8.6136 60.0659 7.50778C60.0659 7.44958 60.1239 7.39138 60.1818 7.27497C60.5297 8.7882 60.7616 10.3596 60.7616 11.9893C60.7616 14.4337 60.4137 16.9945 61.3994 19.2644C61.5153 19.4972 62.0371 19.9046 62.0951 19.9628C61.4574 17.4602 62.443 14.6665 62.2691 12.1057C62.1531 10.3014 61.9212 7.91518 60.8196 6.40196C60.3558 5.76175 59.834 5.06333 59.1382 4.65593C58.3265 4.24852 57.6888 6.86757 57.6308 7.27497C56.935 10.5342 58.0946 14.2009 59.66 17.0528C59.834 17.3438 60.9935 18.4496 60.9935 18.4496Z" fill="#009EDB"/>
<path d="M27.8293 51.8575C23.7708 50.6935 18.8426 49.4713 14.6682 47.376C14.4363 46.9686 14.1464 46.5612 13.9145 46.4448C12.8709 45.921 11.8852 45.3972 10.7836 44.8734C8.98632 43.4183 7.53686 41.6723 6.60921 39.4607C6.72517 39.5771 6.84112 39.6935 6.84112 39.7517C6.72517 39.1697 6.43528 38.6459 6.14538 38.1803C6.02943 37.7728 5.91347 37.3654 5.85549 36.958C5.33369 34.2808 5.39166 31.6035 6.02943 28.9845C6.0874 29.0427 6.08741 29.0427 6.08741 29.0427C6.26134 28.6935 6.31932 28.2861 6.31932 27.8787C6.84112 26.0744 7.59484 24.3284 8.52249 22.6988C8.81239 22.9898 9.10228 23.2226 9.10228 23.2226C9.5661 22.3496 9.91397 21.3019 10.1459 20.2543C10.9576 19.1485 11.8273 18.0427 12.8129 17.0533C12.8709 17.1115 12.9288 17.1697 12.9288 17.1697C12.9868 17.0533 13.1028 16.8787 13.1608 16.7623C13.5666 16.3549 14.0304 15.9474 14.4363 15.54C14.6102 15.6564 14.7262 15.7728 14.7262 15.7146C15.074 15.4236 15.306 15.0162 15.5379 14.5506C16.0017 14.1432 16.5235 13.794 16.9873 13.4448L17.0453 13.503C17.0453 13.4448 17.1033 13.4448 17.1033 13.3866C17.5091 13.0956 17.915 12.8046 18.3208 12.5718C18.6687 12.9792 19.0745 13.2702 19.0166 13.3284C19.1325 12.8046 19.4224 12.2808 19.7123 11.757C20.1761 11.5242 20.582 11.2914 21.0458 11.1168L20.8719 10.8258C20.582 10.9422 20.3501 11.0586 20.0602 11.175C20.3501 10.7676 20.64 10.3601 20.8719 9.95274C21.7416 8.49771 22.6112 7.04269 23.249 5.47126C24.0607 3.60882 24.2346 1.28078 22.1474 0.116762C19.1905 -1.51287 17.1613 10.884 16.2336 12.5136C16.1756 12.63 16.4075 12.921 16.6395 13.0956C16.3496 13.2702 16.1177 13.4448 15.8857 13.6194C16.2336 12.63 16.4655 11.5824 16.5815 10.7094C16.8134 9.31253 16.8714 7.8575 16.6395 6.46068C16.4655 5.29666 15.9437 4.24904 15.248 3.37602C14.9001 2.91041 14.1464 1.68819 13.3927 1.74639C12.2911 1.86279 12.0012 6.34427 11.9432 7.21729C11.7113 10.3019 12.6969 13.3284 12.1751 16.2967C12.1751 16.3549 12.2331 16.5295 12.407 16.6459C11.6533 17.4025 10.9576 18.2173 10.2618 19.0903C10.7257 15.7146 10.0879 11.9316 7.82675 9.66174C6.55123 8.38131 6.55123 12.1644 6.43528 12.921C5.91347 16.4131 5.91347 19.8469 6.3773 23.3972C6.3773 23.63 7.01506 24.0956 7.13101 24.2702C6.78314 25.0268 6.49325 25.7834 6.20336 26.5982C6.20336 26.4818 6.20336 26.3072 6.20336 26.1908C6.14538 24.9104 5.97145 23.63 5.5656 22.3496C4.98582 20.6035 3.53636 18.7411 1.85499 17.9845L1.73903 18.1009C1.85499 19.8469 2.0869 21.5929 2.31881 23.339C2.49275 24.6194 2.72466 25.958 2.95658 27.2385C3.24647 28.8099 4.17412 30.2067 4.46401 31.7199C4.52199 31.9527 4.92784 32.3019 5.15975 32.4765C5.10177 34.1644 5.27571 35.8522 5.68156 37.4818C5.50762 37.249 5.27571 37.0162 5.10177 36.7834C3.71029 35.0956 3.24647 33.0004 1.97094 31.2543C1.91297 31.1379 0.985313 29.9739 0.869356 30.1485C-2.08754 33.5824 3.82625 39.7517 6.43528 41.6723C6.55123 41.7887 6.02943 40.9739 5.85549 40.8575C3.71029 39.1697 0.0576597 35.0374 1.91297 32.1273C2.26084 33.0004 2.55073 33.8734 3.01455 34.63C3.76827 35.9104 5.10177 36.8998 5.62358 38.3549C5.68156 38.5877 5.91347 38.8205 6.14538 39.0533C6.95708 41.2067 8.29058 43.0109 9.91397 44.466C8.00069 43.593 6.02943 43.0109 3.88423 43.1273C4.00019 43.1273 4.7539 44.5824 5.15975 44.6988C8.52249 45.5136 12.3491 51.0427 16.0017 48.7729C16.0597 48.7729 15.6538 48.1908 15.5958 48.249C12.523 49.7041 9.74004 46.9686 7.01506 44.9316C9.91397 45.5718 12.3491 47.2596 15.248 48.1326C15.248 48.1326 15.132 48.0162 15.074 47.8998C19.3065 49.9951 24.1187 51.1591 28.1771 52.2067L27.8293 51.8575ZM22.2054 2.0374C22.0894 2.56121 21.8575 3.02681 21.6256 3.55062C21.1618 4.59824 20.582 5.52946 20.0022 6.46068C19.7703 6.80988 19.4224 7.27549 19.0745 7.7993C19.9442 5.29666 20.9878 2.79401 22.2054 2.0374ZM17.741 11.8152C17.857 11.9316 17.973 12.1062 18.0889 12.2226C17.857 12.339 17.6251 12.4554 17.4512 12.63C17.5091 12.3972 17.6251 12.1062 17.741 11.8152ZM14.2623 5.64586C14.3783 5.18025 14.5522 4.65644 14.7842 4.24904C14.9001 4.77285 14.9001 5.23845 14.9581 5.76226C15.0161 6.92629 14.9001 8.09031 14.6102 9.19613C14.3783 10.3601 13.8565 11.4078 13.5666 12.5718C13.5666 12.048 13.5086 11.5824 13.5086 11.1168C13.5086 9.31253 13.7985 7.45009 14.2623 5.64586ZM13.5666 14.5506C13.6826 14.7252 13.8565 14.958 14.0304 15.1326C13.7985 15.3072 13.6246 15.4818 13.4507 15.6564C13.5086 15.3072 13.5666 14.958 13.5666 14.5506ZM7.59484 16.4713C7.82676 15.1326 7.94271 13.6776 8.29058 12.339C8.34856 12.6882 8.46452 13.0956 8.52249 13.4448C8.98632 16.0639 8.05867 18.5083 7.47888 21.0109C7.47888 19.4977 7.42091 17.9845 7.59484 16.4713ZM7.47888 21.5347C7.59484 21.7676 7.82675 22.1168 8.11665 22.4078C7.82675 22.8734 7.59484 23.339 7.36293 23.8046C7.30495 23.921 7.24697 24.0374 7.18899 24.1538C7.36293 23.2808 7.42091 22.4078 7.47888 21.5347ZM4.52199 30.2067C4.17412 28.9845 4.11614 27.7041 3.94221 26.4818C3.76827 24.7358 3.59434 23.048 3.47838 21.3019C3.47838 20.9527 3.18849 19.9633 3.65232 20.1379C3.94221 20.2543 4.2321 21.7676 4.29008 22.4078C4.57997 24.1538 4.29008 25.8998 4.7539 27.5877C4.81188 27.7623 5.27571 28.3443 5.62358 28.6935C5.39167 29.7993 5.21773 30.9051 5.15975 32.0109C4.98582 31.3707 4.69593 30.8469 4.52199 30.2067Z" fill="#009EDB"/>
<path d="M84.4165 50.8094L85.808 49.1798C86.7356 49.9946 87.7792 50.4602 88.9968 50.4602C89.9244 50.4602 90.5042 50.0528 90.5042 49.4708V49.4126C90.5042 48.8305 90.1564 48.5395 88.359 48.0739C86.2138 47.5501 84.8224 46.9099 84.8224 44.8147V44.7565C84.8224 42.8358 86.3878 41.5554 88.533 41.5554C90.0984 41.5554 91.3739 42.021 92.4755 42.894L91.2579 44.6401C90.3303 43.9999 89.4026 43.5925 88.475 43.5925C87.5473 43.5925 87.0835 43.9999 87.0835 44.5237V44.5819C87.0835 45.2803 87.5473 45.5131 89.3447 45.9787C91.4899 46.5607 92.7074 47.3173 92.7074 49.1798V49.238C92.7074 51.3332 91.084 52.5554 88.8229 52.5554C87.3154 52.5554 85.692 51.9734 84.4165 50.8094Z" fill="#009EDB"/>
<path d="M97.8674 43.8834H94.6206V41.73H103.433V43.8834H100.187V52.3808H97.8674V43.8834Z" fill="#009EDB"/>
<path d="M108.245 41.6719H110.391L114.913 52.3809H112.478L111.492 49.9946H107.028L106.1 52.3809H103.723L108.245 41.6719ZM110.681 47.8994L109.289 44.4655L107.898 47.8994H110.681Z" fill="#009EDB"/>
<path d="M117.348 41.73H125.407V43.8834H119.667V46.1533H124.711V48.3067H119.667V52.3808H117.348V41.73Z" fill="#009EDB"/>
<path d="M128.074 41.73H136.133V43.8834H130.393V46.1533H135.437V48.3067H130.393V52.3808H128.074V41.73Z" fill="#009EDB"/>
<path d="M144.308 47.0845C144.308 43.9999 146.569 41.5554 149.816 41.5554C151.845 41.5554 153.005 42.2538 153.99 43.185L152.483 44.9311C151.671 44.1745 150.802 43.7089 149.758 43.7089C147.961 43.7089 146.685 45.2221 146.685 47.0263V47.0845C146.685 48.8888 147.961 50.4602 149.758 50.4602C150.976 50.4602 151.729 49.9946 152.541 49.238L154.048 50.7512C152.947 51.9152 151.729 52.6718 149.7 52.6718C146.627 52.5554 144.308 50.111 144.308 47.0845Z" fill="#009EDB"/>
<path d="M155.962 47.0845C155.962 43.9999 158.339 41.5554 161.644 41.5554C164.891 41.5554 167.268 43.9999 167.268 47.0263V47.0845C167.268 50.111 164.891 52.6136 161.586 52.6136C158.281 52.5554 155.962 50.111 155.962 47.0845ZM164.775 47.0845C164.775 45.2221 163.441 43.7089 161.586 43.7089C159.731 43.7089 158.397 45.2221 158.397 47.0263V47.0845C158.397 48.8888 159.731 50.4602 161.586 50.4602C163.499 50.402 164.775 48.8888 164.775 47.0845Z" fill="#009EDB"/>
<path d="M170.051 41.73H172.37V50.2273H177.646V52.3808H169.993V41.73H170.051Z" fill="#009EDB"/>
<path d="M180.197 41.73H182.516V50.2273H187.792V52.3808H180.139V41.73H180.197Z" fill="#009EDB"/>
<path d="M190.343 41.73H198.344V43.8252H192.662V45.9787H197.648V48.0739H192.662V50.2855H198.402V52.3808H190.343V41.73Z" fill="#009EDB"/>
<path d="M200.837 47.0845C200.837 43.9999 203.214 41.5554 206.403 41.5554C208.316 41.5554 209.476 42.0792 210.577 43.0104L209.128 44.8147C208.316 44.1163 207.562 43.7089 206.345 43.7089C204.663 43.7089 203.272 45.2221 203.272 47.0263V47.0845C203.272 49.0051 204.606 50.4602 206.461 50.4602C207.33 50.4602 208.084 50.2274 208.664 49.82V48.3067H206.287V46.2697H210.925V50.8676C209.824 51.7988 208.316 52.5554 206.403 52.5554C203.098 52.5554 200.837 50.2274 200.837 47.0845Z" fill="#009EDB"/>
<path d="M213.94 41.73H221.941V43.8252H216.259V45.9787H221.245V48.0739H216.259V50.2855H221.999V52.3808H213.94V41.73Z" fill="#009EDB"/>
<path d="M84.9961 8.73001V2.6189H87.3152V8.67181C87.3152 10.4178 88.1849 11.2909 89.5764 11.2909C91.0258 11.2909 91.8375 10.4178 91.8375 8.73001V2.6189H94.1567V8.61361C94.1567 11.8147 92.3593 13.4443 89.5184 13.4443C86.6775 13.4443 84.9961 11.8729 84.9961 8.73001Z" fill="#009EDB"/>
<path d="M106.622 7.21682V13.3279H104.303V7.27502C104.303 5.52899 103.433 4.65598 102.042 4.65598C100.65 4.65598 99.7806 5.52899 99.7806 7.21682V13.3279H97.4614V7.27502C97.4614 4.07397 99.2588 2.44434 102.1 2.44434C104.883 2.50254 106.622 4.07397 106.622 7.21682Z" fill="#009EDB"/>
<path d="M110.217 2.6189H112.536V13.2697H110.217V2.6189Z" fill="#009EDB"/>
<path d="M118.45 4.83054H115.203V2.6189H124.016V4.77234H120.769V13.2697H118.45V4.83054Z" fill="#009EDB"/>
<path d="M126.567 2.6189H134.568V4.71413H128.886V6.86757H133.872V8.96281H128.886V11.1745H134.626V13.2697H126.567V2.6189Z" fill="#009EDB"/>
<path d="M137.467 2.6189H141.583C144.946 2.6189 147.207 4.88874 147.207 7.91519V7.97339C147.207 10.9998 144.888 13.3279 141.583 13.3279H137.467V2.6189ZM139.786 4.77234V11.1745H141.583C143.497 11.1745 144.772 9.89403 144.772 7.97339V7.91519C144.772 6.05276 143.497 4.71413 141.583 4.71413H139.786V4.77234Z" fill="#009EDB"/>
<path d="M84.4165 31.3121L85.808 29.6824C86.7356 30.4973 87.7792 30.9629 88.9968 30.9629C89.9244 30.9629 90.5042 30.5555 90.5042 29.9734V29.9152C90.5042 29.3332 90.1564 29.0422 88.359 28.5766C86.2138 28.0528 84.8224 27.4126 84.8224 25.3174V25.2592C84.8224 23.3385 86.3878 22.0581 88.533 22.0581C90.0984 22.0581 91.3739 22.5237 92.4755 23.3967L91.2579 25.1428C90.3303 24.5025 89.4026 24.0951 88.475 24.0951C87.5473 24.0951 87.0835 24.5025 87.0835 25.0264V25.0846C87.0835 25.783 87.5473 26.0158 89.3447 26.4814C91.4899 27.0634 92.7074 27.82 92.7074 29.6824C92.7074 31.7777 91.084 32.9999 88.8229 32.9999C87.3154 32.9999 85.692 32.4179 84.4165 31.3121Z" fill="#009EDB"/>
<path d="M98.1571 28.6349L94.0986 22.1746H96.8236L99.3747 26.4232L101.926 22.1746H104.593L100.534 28.5767V32.8254H98.2151V28.6349H98.1571Z" fill="#009EDB"/>
<path d="M105.521 31.3121L106.912 29.6824C107.84 30.4973 108.883 30.9629 110.101 30.9629C111.028 30.9629 111.608 30.5555 111.608 29.9734V29.9152C111.608 29.3332 111.26 29.0422 109.463 28.5766C107.318 28.0528 105.926 27.4126 105.926 25.3174V25.2592C105.926 23.3385 107.492 22.0581 109.637 22.0581C111.202 22.0581 112.478 22.5237 113.579 23.3967L112.362 25.1428C111.434 24.5025 110.507 24.0951 109.579 24.0951C108.651 24.0951 108.188 24.5025 108.188 25.0264V25.0846C108.188 25.783 108.651 26.0158 110.449 26.4814C112.594 27.0634 113.811 27.82 113.811 29.6824C113.811 31.7777 112.188 32.9999 109.927 32.9999C108.419 32.9999 106.796 32.4179 105.521 31.3121Z" fill="#009EDB"/>
<path d="M118.971 24.328H115.725V22.1746H124.537V24.328H121.291V32.8254H118.971V24.328Z" fill="#009EDB"/>
<path d="M127.088 22.1746H135.089V24.2698H129.408V26.4232H134.394V28.5185H129.408V30.7301H135.147V32.8254H127.088V22.1746Z" fill="#009EDB"/>
<path d="M149.584 22C148.077 22 146.917 22.4074 146.105 23.2804C145.294 22.4074 144.134 22 142.627 22C139.786 22 137.988 23.5714 137.988 26.8307V32.8254H140.307V26.7143C140.307 25.0265 141.177 24.1534 142.569 24.1534C144.018 24.1534 144.83 25.0265 144.83 26.7725V32.8254H147.149V26.7143C147.149 25.0265 148.019 24.1534 149.41 24.1534C150.859 24.1534 151.671 25.0265 151.671 26.7725V32.8254H153.99V26.7725C154.164 23.6296 152.425 22 149.584 22Z" fill="#009EDB"/>
<path d="M164.832 7.21682V13.3279H162.513V7.27502C162.513 5.52899 161.644 4.65598 160.252 4.65598C158.803 4.65598 157.991 5.52899 157.991 7.21682V13.3279H155.672V7.27502C155.672 4.07397 157.469 2.44434 160.31 2.44434C163.093 2.50254 164.832 4.07397 164.832 7.21682Z" fill="#009EDB"/>
<path d="M171.79 2.56079H173.935L178.457 13.2698H176.022L175.037 10.8835H170.572L169.587 13.2698H167.209L171.79 2.56079ZM174.225 8.84651L172.833 5.41264L171.442 8.84651H174.225Z" fill="#009EDB"/>
<path d="M181.994 4.83054H178.747V2.6189H187.56V4.77234H184.313V13.2697H181.994V4.83054Z" fill="#009EDB"/>
<path d="M190.227 2.6189H192.546V13.2697H190.227V2.6189Z" fill="#009EDB"/>
<path d="M195.503 7.97344C195.503 4.88878 197.88 2.44434 201.185 2.44434C204.432 2.44434 206.809 4.88878 206.809 7.91524V7.97344C206.809 10.9999 204.432 13.5025 201.127 13.5025C197.822 13.5025 195.503 11.0581 195.503 7.97344ZM204.316 7.97344C204.316 6.111 202.982 4.59778 201.127 4.59778C199.272 4.59778 197.938 6.111 197.938 7.91524V7.97344C197.938 9.77767 199.272 11.3491 201.127 11.3491C203.04 11.2909 204.316 9.83587 204.316 7.97344Z" fill="#009EDB"/>
<path d="M221.593 11.7564L222.985 10.1268C223.912 10.9416 224.956 11.4072 226.174 11.4072C227.101 11.4072 227.681 10.9998 227.681 10.4178V10.3596C227.681 9.77757 227.333 9.48657 225.536 9.02096C223.391 8.49715 221.999 7.85694 221.999 5.7617V5.7035C221.999 3.78286 223.565 2.50244 225.71 2.50244C227.275 2.50244 228.551 2.96805 229.652 3.84107L228.435 5.5871C227.507 4.94689 226.579 4.53948 225.652 4.53948C224.782 4.53948 224.26 4.94689 224.26 5.4707V5.5289C224.26 6.22731 224.724 6.46011 226.521 6.92572C228.667 7.50773 229.884 8.26435 229.884 10.1268V10.185C229.884 12.2802 228.261 13.5024 226 13.5024C224.492 13.4442 222.869 12.8622 221.593 11.7564Z" fill="#009EDB"/>
<path d="M219.042 7.21682V13.3279H216.723V7.27502C216.723 5.52899 215.854 4.65598 214.462 4.65598C213.013 4.65598 212.201 5.52899 212.201 7.21682V13.3279H209.882V7.27502C209.882 4.07397 211.679 2.44434 214.52 2.44434C217.303 2.50254 219.042 4.07397 219.042 7.21682Z" fill="#009EDB"/>
</g>
<defs>
<clipPath id="clip0_1028:6975">
<rect width="230" height="55" fill="white"/>
</clipPath>
</defs>
</svg>
